<?xml version="1.0" encoding="UTF-8"?>
<svg width="102px" height="148px" viewBox="0 0 102 148" version="1.1" xmlns="http://www.w3.org/2000/svg" xmlns:xlink="http://www.w3.org/1999/xlink">
    <!-- Generator: Sketch 42 (36781) - http://www.bohemiancoding.com/sketch -->
    <title>Group</title>
    <desc>Created with Sketch.</desc>
    <defs></defs>
    <g id="Page-1" stroke="none" stroke-width="1" fill="none" fill-rule="evenodd">
        <g id="15028-NPZARX" transform="translate(-590.000000, -247.000000)">
            <g id="Group" transform="translate(589.000000, 247.000000)">
                <path d="M87,139.592 C87,143.734 72.062,147.092 53.634,147.092 C35.206,147.092 20.268,143.734 20.268,139.592 C20.268,135.45 35.206,132.092 53.634,132.092 C72.062,132.092 87,135.45 87,139.592" id="Fill-36" fill="#E0D9C2"></path>
                <path d="M58.256,131.327 C59.324,131.545 60.385,131.714 61.449,131.845 C60.593,128.637 60.034,125.188 59.401,122.115 C58.504,117.744 58.108,113.324 59.775,109.1 C60.231,107.94 62.192,107.976 62.108,109.417 C61.837,113.97 62.814,118.171 64.194,122.476 C65.396,126.229 67.426,130.604 67.193,134.628 C67.277,134.808 67.342,134.996 67.352,135.198 C67.491,137.831 69.546,141.146 68.005,143.593 C66.935,145.294 64.708,145.164 63.613,143.593 C62.838,142.484 62.864,140.897 62.944,139.481 C62.544,139.86 62.146,140.233 61.747,140.619 C60.888,141.452 60.14,142.399 58.927,142.732 C57.873,143.022 56.524,142.587 55.954,141.617 C54.495,139.127 57.003,137.286 59.885,136.108 C57.779,136.25 54.953,136.32 54.181,133.93 C53.376,131.446 56.661,131 58.256,131.327" id="Fill-145" fill="#E7772D"></path>
                <path d="M37.79,132.239 C35.779,131.595 33.129,130.618 33.292,128.113 C33.46,125.507 36.679,126.303 38.041,127.195 C38.952,127.792 39.878,128.338 40.82,128.852 C41.203,125.554 41.957,122.143 42.502,119.054 C43.277,114.661 44.541,110.406 47.647,107.094 C48.499,106.185 50.308,106.941 49.699,108.248 C47.77,112.382 47.129,116.648 46.824,121.157 C46.558,125.089 46.832,129.903 45.13,133.558 C45.142,133.756 45.132,133.955 45.067,134.147 C44.225,136.645 44.913,140.485 42.577,142.192 C40.956,143.379 38.936,142.437 38.497,140.573 C38.188,139.256 38.795,137.791 39.392,136.503 C38.879,136.708 38.371,136.909 37.859,137.12 C36.752,137.577 35.708,138.182 34.458,138.045 C33.37,137.926 32.277,137.023 32.105,135.911 C31.668,133.06 34.678,132.272 37.79,132.239" id="Fill-146" fill="#E7772D"></path>
                <path d="M97.38,70.991 C99.393,89.293 68.275,97.862 73.132,62.666 C76.992,34.698 67.826,18.549 51.76,16.064 C51.704,16.055 51.649,16.051 51.594,16.043 C53.174,11.107 55.484,6.355 59.399,2.99 C60.486,2.056 59.064,0.238 57.875,1.015 C53.941,3.586 50.847,7.374 48.93,11.676 C48.035,8.303 46.453,5.133 44.079,2.223 C43.58,1.609 42.684,2.392 43.026,3.035 C45.207,7.132 45.981,11.339 46.468,15.701 C11.856,16.433 3.911,80.619 26.473,102.997 C50.144,126.474 85.307,113.729 97.462,98.301 C109.619,82.874 97.38,70.991 97.38,70.991" id="Fill-147" fill="#A88BB4"></path>
                <path d="M20.125,36.145 C20.125,36.145 28.125,41.071 18.125,53.522 L1.421,52.409 L14.126,43.975 L0.978,25.845 L20.125,36.145" id="Fill-148" fill="#836B9C"></path>
                <path d="M31.271,52.99 C22.239,39.511 44.119,24.847 53.151,38.327 C63.188,53.304 41.308,67.968 31.271,52.99" id="Fill-149" fill="#FFFFFF"></path>
                <path d="M38.077,41.704 C41.104,39.189 46.062,38.464 48.091,42.207 C50.624,46.885 47.515,51.019 43.662,52.013 L38.077,41.704" id="Fill-150" fill="#3A4145"></path>
                <path d="M91.521,95.115 C91.521,95.115 71.122,115.732 51.852,111.077 C32.578,106.421 21.154,86.853 31.009,78.273 C40.863,69.694 53.367,75.232 64.155,84.296 C74.942,93.362 85.131,101.011 91.521,95.115" id="Fill-151" fill="#C9B2CB"></path>
                <path d="M36.934,85.479 C40.107,84.905 40.995,89.828 37.823,90.399 C34.648,90.972 33.761,86.051 36.934,85.479" id="Fill-152" fill="#FFFFFF"></path>
                <path d="M37.92,96.925 C39.26,94.999 42.104,96.024 42.444,97.928 C42.799,98.567 42.839,99.321 42.361,100.011 C41.881,100.702 41.16,100.925 40.438,100.815 C38.534,101.161 36.58,98.853 37.92,96.925" id="Fill-153" fill="#FFFFFF"></path>
                <path d="M50.43,92.7 C51.745,92.463 52.335,95.744 51.024,95.98 C48.396,96.453 47.807,93.172 50.43,92.7" id="Fill-154" fill="#FFFFFF"></path>
                <path d="M52.241,102.334 C52.333,100.374 55.269,99.844 56.038,101.65 C56.285,102.224 56.313,102.739 56.262,103.345 C56.101,105.236 53.436,105.717 52.624,104.003 C52.364,103.451 52.213,102.958 52.241,102.334" id="Fill-155" fill="#FFFFFF"></path>
                <path d="M66.549,99.406 C69.35,98.901 70.136,103.249 67.331,103.754 C64.527,104.259 63.744,99.912 66.549,99.406" id="Fill-156" fill="#FFFFFF"></path>
                <path d="M79.605,96.671 C80.918,96.434 81.598,100.208 80.287,100.444 C77.662,100.918 76.98,97.144 79.605,96.671" id="Fill-157" fill="#FFFFFF"></path>
                <path d="M69.728,94.493 C72.027,94.078 72.67,97.646 70.371,98.061 C68.067,98.476 67.425,94.908 69.728,94.493" id="Fill-158" fill="#FFFFFF"></path>
                <path d="M57.76,94.629 C57.853,94.504 57.945,94.377 58.037,94.25 C59.091,92.817 61.437,93.253 61.761,95.061 C62.088,96.869 60.043,98.095 58.556,97.122 C58.423,97.035 58.292,96.949 58.161,96.862 C57.443,96.394 57.251,95.319 57.76,94.629" id="Fill-159" fill="#FFFFFF"></path>
                <path d="M54.306,84.125 C56.951,83.647 57.69,87.749 55.046,88.226 C52.4,88.703 51.661,84.601 54.306,84.125" id="Fill-160" fill="#FFFFFF"></path>
                <path d="M44.334,81.434 C46.662,81.014 47.313,84.623 44.986,85.042 C42.658,85.462 42.008,81.853 44.334,81.434" id="Fill-161" fill="#FFFFFF"></path>
            </g>
        </g>
    </g>
</svg>