<svg xmlns="http://www.w3.org/2000/svg" width="84" height="86" viewBox="0 0 84 86">
  <g fill="#55535A" transform="translate(0 -1)">
    <path d="M83.5,45.5 L73.8,45.5 L73.8,37 C73.8,31.5 69.3,27 63.8,27 L43.8,27 L43.8,16.8 C48.1,15.8 50.8,11.5 49.8,7.2 C48.8,2.9 44.5,0.2 40.2,1.2 C35.9,2.2 33.2,6.5 34.2,10.8 C34.9,13.6 37,15.9 39.8,16.7 L39.8,27 L19.8,27 C14.3,27 9.8,31.5 9.8,37 L9.8,45.5 L0.5,45.5 L0.5,68.5 L9.8,68.5 L9.8,87 L73.8,87 L73.8,68.5 L83.5,68.5 L83.5,45.5 Z M38,9 C38,6.8 39.8,5 42,5 C44.2,5 46,6.8 46,9 C46,11.2 44.2,13 42,13 C39.8,13 38,11.2 38,9 Z M4.5,64.5 L4.5,49.5 L9.8,49.5 L9.8,64.5 L4.5,64.5 Z M54.8,83 L43.8,83 L43.8,70 L54.8,70 L54.8,83 Z M39.8,83 L28.8,83 L28.8,70 L39.8,70 L39.8,83 Z M69.8,83 L58.8,83 L58.8,66 L24.8,66 L24.8,83 L13.8,83 L13.8,37 C13.8,33.7 16.5,31 19.8,31 L63.8,31 C67.1,31 69.8,33.7 69.8,37 L69.8,83 Z M79.5,64.5 L73.8,64.5 L73.8,49.5 L79.5,49.5 L79.5,64.5 Z"/>
    <path d="M30 41C25.6 41 22 44.6 22 49 22 53.4 25.6 57 30 57 34.4 57 38 53.4 38 49 38 44.6 34.4 41 30 41zM30 53C27.8 53 26 51.2 26 49 26 46.8 27.8 45 30 45 32.2 45 34 46.8 34 49 34 51.2 32.2 53 30 53zM54 41C49.6 41 46 44.6 46 49 46 53.4 49.6 57 54 57 58.4 57 62 53.4 62 49 62 44.6 58.4 41 54 41zM54 53C51.8 53 50 51.2 50 49 50 46.8 51.8 45 54 45 56.2 45 58 46.8 58 49 58 51.2 56.2 53 54 53z"/>
  </g>
</svg>
