<?xml version="1.0" encoding="UTF-8"?>
<svg width="105px" height="136px" viewBox="0 0 105 136" version="1.1" xmlns="http://www.w3.org/2000/svg" xmlns:xlink="http://www.w3.org/1999/xlink">
    <!-- Generator: Sketch 42 (36781) - http://www.bohemiancoding.com/sketch -->
    <title>Blue Happy Bird</title>
    <desc>Created with Sketch.</desc>
    <defs></defs>
    <g id="Page-1" stroke="none" stroke-width="1" fill="none" fill-rule="evenodd">
        <g id="15028-NPZARX" transform="translate(-578.000000, -583.000000)">
            <g id="Blue-Happy-Bird" transform="translate(578.000000, 582.000000)">
                <path d="M96,128.592 C96,132.734 81.062,136.092 62.634,136.092 C44.206,136.092 29.268,132.734 29.268,128.592 C29.268,124.45 44.206,121.092 62.634,121.092 C81.062,121.092 96,124.45 96,128.592" id="Fill-44" fill="#E0D9C2"></path>
                <path d="M57.938,126.376 C55.75,124.461 53.508,122.578 50.75,121.569 C51.265,119.329 51.469,116.434 51.432,114.553 C51.309,108.326 52.263,102.188 51.636,95.956 C51.537,94.974 49.15,94.131 48.923,95.073 C47.693,100.167 47.529,106.098 46.896,111.298 C46.507,114.479 45.678,118.373 45.702,121.712 C42.986,123.092 40.384,125.117 38.646,127.392 C36.697,129.938 41.295,132.61 42.768,129.416 C43.593,127.624 45.339,126.496 46.925,125.244 C46.604,127.426 45.985,129.61 45.637,131.709 C45.658,131.707 45.678,131.705 45.699,131.703 C45.696,134.721 50.446,135.003 50.357,131.98 C50.295,129.905 50.368,127.798 50.184,125.735 C51.563,127.021 52.912,128.337 54.015,129.87 C56.015,132.658 60.484,128.609 57.938,126.376" id="Fill-254" fill="#E7772D"></path>
                <path d="M83.339,123.936 C80.743,122.627 78.101,121.364 75.18,121.076 C75.117,118.779 74.591,115.924 74.084,114.113 C72.408,108.114 71.796,101.933 69.632,96.056 C69.29,95.131 66.768,94.911 66.784,95.882 C66.869,101.12 68.191,106.9 68.879,112.097 C69.299,115.274 69.469,119.252 70.327,122.479 C68.043,124.493 66.029,127.104 64.915,129.741 C63.666,132.694 68.785,134.132 69.414,130.669 C69.764,128.729 71.172,127.201 72.395,125.593 C72.63,127.783 72.577,130.055 72.765,132.171 C72.783,132.166 72.803,132.16 72.823,132.152 C73.575,135.075 78.245,134.16 77.403,131.256 C76.824,129.264 76.366,127.203 75.672,125.252 C77.328,126.152 78.966,127.09 80.415,128.3 C83.051,130.497 86.364,125.459 83.339,123.936" id="Fill-255" fill="#E7772D"></path>
                <path d="M53.484,106.037 C55.868,106.605 58.309,106.951 60.757,107.045 C58.203,106.796 56.313,106.257 55.49,105.987 C54.834,106.049 54.169,106.078 53.484,106.037" id="Fill-256" fill="#72C3B5"></path>
                <path d="M62.203,19.508 C62.262,19.293 62.319,19.069 62.379,18.832 C63.305,15.107 64.468,11.943 67.162,9.116 C70.047,6.089 75.47,4.447 78.999,7.349 C81.316,9.253 81.069,13.462 82.02,16.077 C82.607,17.695 84.845,17.789 85.396,16.077 C88.109,7.662 81.445,0.188 72.979,1.053 C68.916,1.468 64.824,4.093 62.416,7.341 C60.956,9.311 60.113,11.313 59.524,13.378 C57.893,10.313 55.295,7.773 52.184,6.674 C51.02,6.264 50.499,7.921 51.395,8.548 C55.275,11.271 56.15,15.497 57.043,19.738 C33.371,22.933 23.025,59.593 28.679,83.91 C28.791,84.392 28.923,84.865 29.064,85.336 C28.411,85.188 27.756,85.039 27.111,84.866 C21.458,83.352 17.257,80.426 12.498,77.223 C8.018,74.208 3.469,80.754 6.926,84.444 C8.826,86.471 11.193,88.131 13.828,89.454 C11.354,89.147 8.919,88.523 6.538,87.438 C3.017,85.83 -0.397,89.081 1.319,92.656 C3.082,96.328 6.611,98.258 10.57,99.249 C9.602,99.492 8.62,99.729 7.625,99.961 C4.07,100.791 4.262,106.005 7.625,106.94 C17.787,109.765 28.175,105.589 37.063,100.794 C37.596,100.507 38.464,100.089 39.532,99.57 C43.577,102.589 48.394,104.822 53.478,106.035 C53.526,106.026 55.048,105.828 55.033,105.827 C55.033,105.827 55.193,105.89 55.49,105.987 C69.613,104.673 77.488,80.939 84.543,79.801 C89.755,78.961 91.946,82.771 91.144,87.398 C91.614,86.287 92.053,85.128 92.45,83.91 C103.754,49.309 86.328,20.467 62.203,19.508" id="Fill-257" fill="#72C3B5"></path>
                <path d="M79.483,102.01 C78.295,102.752 77.023,103.458 75.64,104.17 C76.959,103.554 78.244,102.838 79.483,102.01" id="Fill-258" fill="#72C3B5"></path>
                <path d="M55.49,105.969 C55.193,105.871 55.033,105.818 55.033,105.818 C55.048,105.818 53.526,106.003 53.478,106.012 C53.477,106.013 53.467,106 53.467,106 L53.484,106 C54.169,106 54.834,106.03 55.49,105.969" id="Fill-259" fill="#9ED3C9"></path>
                <path d="M84.543,79.801 C77.488,80.939 69.613,104.673 55.49,105.987 C56.313,106.257 58.203,106.796 60.757,107.045 C64.538,107.414 69.775,107.146 75.179,104.407 C75.336,104.328 75.485,104.249 75.64,104.17 C77.023,103.458 78.295,102.752 79.483,102.01 C82.938,99.85 85.704,97.358 88.569,93.353 C89.959,91.41 90.808,89.334 91.144,87.398 C91.946,82.771 89.755,78.961 84.543,79.801" id="Fill-260" fill="#9ED3C9"></path>
                <path d="M87.882,51.78 L103.979,43.719 L96.816,56.836 L104.772,67.281 L87.882,60.127 C87.882,60.127 82.87,58.314 87.882,51.78" id="Fill-261" fill="#E57350"></path>
                <path d="M61.649,39.429 C54.915,39.429 49.297,45.046 49.297,51.78 C49.297,58.515 54.915,64.133 61.649,64.133 C68.383,64.133 74.001,58.515 74.001,51.78 C74.001,45.046 68.383,39.429 61.649,39.429" id="Fill-262" fill="#FFFFFF"></path>
                <path d="M61.649,49.216 C65.03,49.216 67.491,50.636 69.048,52.702 C69.492,48.412 66.831,43.765 61.053,43.765 C55.773,43.765 53.421,48.675 53.985,53.061 C55.522,50.8 58.073,49.216 61.649,49.216" id="Fill-263" fill="#3A4145"></path>
            </g>
        </g>
    </g>
</svg>
