<svg width="105" height="136" viewBox="0 0 105 136" xmlns="http://www.w3.org/2000/svg"><title>Blue Happy Bird</title><g fill="none" fill-rule="evenodd"><path d="M96 127.592c0 4.142-14.938 7.5-33.366 7.5-18.428 0-33.366-3.358-33.366-7.5 0-4.142 14.938-7.5 33.366-7.5 18.428 0 33.366 3.358 33.366 7.5" fill="#E0D9C2"/><path d="M57.938 125.376c-2.188-1.915-4.43-3.798-7.188-4.807.515-2.24.719-5.135.682-7.016-.123-6.227.831-12.365.204-18.597-.099-.982-2.486-1.825-2.713-.883-1.23 5.094-1.394 11.025-2.027 16.225-.389 3.181-1.218 7.075-1.194 10.414-2.716 1.38-5.318 3.405-7.056 5.68-1.949 2.546 2.649 5.218 4.122 2.024.825-1.792 2.571-2.92 4.157-4.172-.321 2.182-.94 4.366-1.288 6.465l.062-.006c-.003 3.018 4.747 3.3 4.658.277-.062-2.075.011-4.182-.173-6.245 1.379 1.286 2.728 2.602 3.831 4.135 2 2.788 6.469-1.261 3.923-3.494M83.339 122.936c-2.596-1.309-5.238-2.572-8.159-2.86-.063-2.297-.589-5.152-1.096-6.963-1.676-5.999-2.288-12.18-4.452-18.057-.342-.925-2.864-1.145-2.848-.174.085 5.238 1.407 11.018 2.095 16.215.42 3.177.59 7.155 1.448 10.382-2.284 2.014-4.298 4.625-5.412 7.262-1.249 2.953 3.87 4.391 4.499.928.35-1.94 1.758-3.468 2.981-5.076.235 2.19.182 4.462.37 6.578a.557.557 0 0 0 .058-.019c.752 2.923 5.422 2.008 4.58-.896-.579-1.992-1.037-4.053-1.731-6.004 1.656.9 3.294 1.838 4.743 3.048 2.636 2.197 5.949-2.841 2.924-4.364" fill="#E7772D"/><path d="M53.484 105.037c2.384.568 4.825.914 7.273 1.008-2.554-.249-4.444-.788-5.267-1.058-.656.062-1.321.091-2.006.05" fill="#72C3B5"/><path d="M62.203 18.508c.059-.215.116-.439.176-.676.926-3.725 2.089-6.889 4.783-9.716 2.885-3.027 8.308-4.669 11.837-1.767 2.317 1.904 2.07 6.113 3.021 8.728.587 1.618 2.825 1.712 3.376 0C88.109 6.662 81.445-.812 72.979.053c-4.063.415-8.155 3.04-10.563 6.288-1.46 1.97-2.303 3.972-2.892 6.037-1.631-3.065-4.229-5.605-7.34-6.704-1.164-.41-1.685 1.247-.789 1.874 3.88 2.723 4.755 6.949 5.648 11.19-23.672 3.195-34.018 39.855-28.364 64.172.112.482.244.955.385 1.426a51.386 51.386 0 0 1-1.953-.47c-5.653-1.514-9.854-4.44-14.613-7.643-4.48-3.015-9.029 3.531-5.572 7.221 1.9 2.027 4.267 3.687 6.902 5.01-2.474-.307-4.909-.931-7.29-2.016-3.521-1.608-6.935 1.643-5.219 5.218 1.763 3.672 5.292 5.602 9.251 6.593-.968.243-1.95.48-2.945.712-3.555.83-3.363 6.044 0 6.979 10.162 2.825 20.55-1.351 29.438-6.146.533-.287 1.401-.705 2.469-1.224 4.045 3.019 8.862 5.252 13.946 6.465.048-.009 1.57-.207 1.555-.208 0 0 .16.063.457.16 14.123-1.314 21.998-25.048 29.053-26.186 5.212-.84 7.403 2.97 6.601 7.597a43.68 43.68 0 0 0 1.306-3.488c11.304-34.601-6.122-63.443-30.247-64.402M79.483 101.01a53.217 53.217 0 0 1-3.843 2.16 28.96 28.96 0 0 0 3.843-2.16" fill="#72C3B5"/><path d="M55.49 104.969l-.457-.151c.015 0-1.507.185-1.555.194-.001.001-.011-.012-.011-.012h.017c.685 0 1.35.03 2.006-.031M84.543 78.801c-7.055 1.138-14.93 24.872-29.053 26.186.823.27 2.713.809 5.267 1.058 3.781.369 9.018.101 14.422-2.638.157-.079.306-.158.461-.237a53.217 53.217 0 0 0 3.843-2.16c3.455-2.16 6.221-4.652 9.086-8.657 1.39-1.943 2.239-4.019 2.575-5.955.802-4.627-1.389-8.437-6.601-7.597" fill="#9ED3C9"/><path d="M87.882 50.78l16.097-8.061-7.163 13.117 7.956 10.445-16.89-7.154s-5.012-1.813 0-8.347" fill="#E57350"/><path d="M61.649 38.429c-6.734 0-12.352 5.617-12.352 12.351 0 6.735 5.618 12.353 12.352 12.353s12.352-5.618 12.352-12.353c0-6.734-5.618-12.351-12.352-12.351" fill="#FFF"/><path d="M61.649 48.216c3.381 0 5.842 1.42 7.399 3.486.444-4.29-2.217-8.937-7.995-8.937-5.28 0-7.632 4.91-7.068 9.296 1.537-2.261 4.088-3.845 7.664-3.845" fill="#3A4145"/></g></svg>