<svg width="102" height="148" viewBox="0 0 102 148" xmlns="http://www.w3.org/2000/svg"><title>Group</title><g fill="none" fill-rule="evenodd"><path d="M86 139.592c0 4.142-14.938 7.5-33.366 7.5-18.428 0-33.366-3.358-33.366-7.5 0-4.142 14.938-7.5 33.366-7.5 18.428 0 33.366 3.358 33.366 7.5" fill="#E0D9C2"/><path d="M57.256 131.327c1.068.218 2.129.387 3.193.518-.856-3.208-1.415-6.657-2.048-9.73-.897-4.371-1.293-8.791.374-13.015.456-1.16 2.417-1.124 2.333.317-.271 4.553.706 8.754 2.086 13.059 1.202 3.753 3.232 8.128 2.999 12.152.084.18.149.368.159.57.139 2.633 2.194 5.948.653 8.395-1.07 1.701-3.297 1.571-4.392 0-.775-1.109-.749-2.696-.669-4.112-.4.379-.798.752-1.197 1.138-.859.833-1.607 1.78-2.82 2.113-1.054.29-2.403-.145-2.973-1.115-1.459-2.49 1.049-4.331 3.931-5.509-2.106.142-4.932.212-5.704-2.178-.805-2.484 2.48-2.93 4.075-2.603M36.79 132.239c-2.011-.644-4.661-1.621-4.498-4.126.168-2.606 3.387-1.81 4.749-.918a40.049 40.049 0 0 0 2.779 1.657c.383-3.298 1.137-6.709 1.682-9.798.775-4.393 2.039-8.648 5.145-11.96.852-.909 2.661-.153 2.052 1.154-1.929 4.134-2.57 8.4-2.875 12.909-.266 3.932.008 8.746-1.694 12.401a1.53 1.53 0 0 1-.063.589c-.842 2.498-.154 6.338-2.49 8.045-1.621 1.187-3.641.245-4.08-1.619-.309-1.317.298-2.782.895-4.07-.513.205-1.021.406-1.533.617-1.107.457-2.151 1.062-3.401.925-1.088-.119-2.181-1.022-2.353-2.134-.437-2.851 2.573-3.639 5.685-3.672" fill="#E7772D"/><path d="M96.38 70.991c2.013 18.302-29.105 26.871-24.248-8.325 3.86-27.968-5.306-44.117-21.372-46.602-.056-.009-.111-.013-.166-.021 1.58-4.936 3.89-9.688 7.805-13.053 1.087-.934-.335-2.752-1.524-1.975-3.934 2.571-7.028 6.359-8.945 10.661-.895-3.373-2.477-6.543-4.851-9.453-.499-.614-1.395.169-1.053.812 2.181 4.097 2.955 8.304 3.442 12.666-34.612.732-42.557 64.918-19.995 87.296 23.671 23.477 58.834 10.732 70.989-4.696 12.157-15.427-.082-27.31-.082-27.31" fill="#A88BB4"/><path d="M19.125 36.145s8 4.926-2 17.377L.421 52.409l12.705-8.434-13.148-18.13 19.147 10.3" fill="#836B9C"/><path d="M30.271 52.99c-9.032-13.479 12.848-28.143 21.88-14.663 10.037 14.977-11.843 29.641-21.88 14.663" fill="#FFF"/><path d="M37.077 41.704c3.027-2.515 7.985-3.24 10.014.503 2.533 4.678-.576 8.812-4.429 9.806l-5.585-10.309" fill="#3A4145"/><path d="M90.521 95.115s-20.399 20.617-39.669 15.962c-19.274-4.656-30.698-24.224-20.843-32.804 9.854-8.579 22.358-3.041 33.146 6.023 10.787 9.066 20.976 16.715 27.366 10.819" fill="#C9B2CB"/><path d="M35.934 85.479c3.173-.574 4.061 4.349.889 4.92-3.175.573-4.062-4.348-.889-4.92M36.92 96.925c1.34-1.926 4.184-.901 4.524 1.003.355.639.395 1.393-.083 2.083-.48.691-1.201.914-1.923.804-1.904.346-3.858-1.962-2.518-3.89M49.43 92.7c1.315-.237 1.905 3.044.594 3.28-2.628.473-3.217-2.808-.594-3.28M51.241 102.334c.092-1.96 3.028-2.49 3.797-.684.247.574.275 1.089.224 1.695-.161 1.891-2.826 2.372-3.638.658-.26-.552-.411-1.045-.383-1.669M65.549 99.406c2.801-.505 3.587 3.843.782 4.348-2.804.505-3.587-3.842-.782-4.348M78.605 96.671c1.313-.237 1.993 3.537.682 3.773-2.625.474-3.307-3.3-.682-3.773M68.728 94.493c2.299-.415 2.942 3.153.643 3.568-2.304.415-2.946-3.153-.643-3.568M56.76 94.629c.093-.125.185-.252.277-.379 1.054-1.433 3.4-.997 3.724.811.327 1.808-1.718 3.034-3.205 2.061a67.788 67.788 0 0 1-.395-.26c-.718-.468-.91-1.543-.401-2.233M53.306 84.125c2.645-.478 3.384 3.624.74 4.101-2.646.477-3.385-3.625-.74-4.101M43.334 81.434c2.328-.42 2.979 3.189.652 3.608-2.328.42-2.978-3.189-.652-3.608" fill="#FFF"/></g></svg>